<svg id="Layer_1" data-name="Layer 1" xmlns="http://www.w3.org/2000/svg" viewBox="0 0 90 103.54"><defs><style>.cls-1{fill:#fff;}</style></defs><title>logo_knockout</title><path class="cls-1" d="M86.39,114.72C76.71,104.12,76.47,98,76.47,98a6.22,6.22,0,0,1,1.82-4.29L86,86.78a3.46,3.46,0,0,0,.71-4L76.82,64.23C76.16,63,74.88,62,72.47,62.06c-21.21,0-18,22.74-18,22.74,1.08,14.77,12,33.4,22.93,44.3a80,80,0,0,0,7.64,6.67h0c9.11,7,20.6,13.16,31,15.42a40.69,40.69,0,0,0,5.65.84l.43,0a17.44,17.44,0,0,0,4.35-.33c5.87-1,15.33-4.67,17.49-18.27v-.08s0-.08,0-.13a2.94,2.94,0,0,0,0-.33h0a3.75,3.75,0,0,0-1.52-3,3.66,3.66,0,0,1,1.54,3h0c1.21-17-18.74-19.43-7.05-30,12.57-11.36,6.46-26.68-.26-34.24-.66-.74-1.76-.65-1.83.34-.3,4.1-1,10.1-6.08,9.78a4.3,4.3,0,0,1-3.48-1.6c-5.19-5.19-3.48-19.43,4-27.14.66-.68-.25-1.8-1.14-1.46-6.5,2.46-20.16,11.22-12.62,40.79,4.79,18.79,4.05,23.68-.85,24.23a4.72,4.72,0,0,1-4.1-1.26c-3.65-3.65-2.12-9.16-1.18-13.82,1.64-8.08-2.12-14.08-5.89-17.86l-.11-.1-1-.79a.94.94,0,0,0-1.46,1c1,3.6.35,9.41-6.54,18.27a46.92,46.92,0,0,0-7.72,14.59c-.08.25-.21.64-.31,1.06h0m56.16,15.14-.23-.14Z" transform="translate(-54.34 -48.54)"/></svg>