<svg id="Layer_1" data-name="Layer 1" xmlns="http://www.w3.org/2000/svg" viewBox="0 0 295.97 295.97"><defs><style>.cls-1{fill:#fff;}</style></defs><title>logo_block</title><path class="cls-1" d="M334.78,308.52c5.77-.14,8.84,2.25,10.42,5.2l23.69,44.43a8.29,8.29,0,0,1-1.7,9.58l-18.47,16.6a14.88,14.88,0,0,0-2.5,3.33h34.29a6.17,6.17,0,0,0,6.17-6.17V258.17a6.17,6.17,0,0,0-6.17-6.17H257.2a6.17,6.17,0,0,0-6.17,6.17V381.49a6.16,6.16,0,0,0,6.17,6.17h39.44a110.7,110.7,0,0,1-5-24.67S284,308.52,334.78,308.52Z" transform="translate(-251.03 -252)"/><path class="cls-1" d="M424.13,387.65h17.08c-1-4.2-2.05-8.76-3.32-13.75-18.06-70.82,14.66-91.8,30.22-97.69,2.13-.81,4.31,1.87,2.73,3.5-17.91,18.47-22,52.57-9.58,65a10.3,10.3,0,0,0,8.33,3.83c12.17.77,13.84-13.6,14.56-23.42.17-2.37,2.8-2.59,4.38-.81,12.62,14.2,24.34,39.83,14.29,63.35h38a6.17,6.17,0,0,0,6.17-6.17V258.17a6.17,6.17,0,0,0-6.17-6.17H417.51a6.17,6.17,0,0,0-6.17,6.17v97.26C418.23,363.08,424.46,373.87,424.13,387.65Z" transform="translate(-251.03 -252)"/><path class="cls-1" d="M346.59,469.08c-14.74-14.7-29.48-35.28-40-56.77H257.2a6.17,6.17,0,0,0-6.17,6.17V541.8A6.16,6.16,0,0,0,257.2,548H380.52a6.17,6.17,0,0,0,6.17-6.17V499.92a235.14,235.14,0,0,1-21.8-14.86A191.6,191.6,0,0,1,346.59,469.08Z" transform="translate(-251.03 -252)"/><path class="cls-1" d="M368,434.55c.24-1,.55-1.94.74-2.54a112.34,112.34,0,0,1,8.48-19.69h-26a132.13,132.13,0,0,0,16.85,22.33Z" transform="translate(-251.03 -252)"/><path class="cls-1" d="M426,428.92a11.3,11.3,0,0,0,9.82,3c7.23-.81,10.67-5.58,9.57-19.62h-24.9C420.26,418.45,421.42,424.31,426,428.92Z" transform="translate(-251.03 -252)"/><path class="cls-1" d="M506,478.16a8.77,8.77,0,0,0-3.69-7.18,9,9,0,0,1,3.64,7.18,7.05,7.05,0,0,1,0,.79v.5c-5.17,32.57-27.83,41.36-41.89,43.76a41.77,41.77,0,0,1-10.42.79h-1a97.46,97.46,0,0,1-13.53-2,149.63,149.63,0,0,1-27.78-9.26V541.8a6.16,6.16,0,0,0,6.17,6.17H540.83A6.17,6.17,0,0,0,547,541.8V418.48a6.17,6.17,0,0,0-6.17-6.17H483.64C468.86,432.85,508.7,440.87,506,478.16Z" transform="translate(-251.03 -252)"/></svg>